<svg width="375" height="407" viewBox="0 0 375 407" fill="none" xmlns="http://www.w3.org/2000/svg">
<g clip-path="url(#clip0_28_9908)">
<path d="M375 237.452C375 237.452 302.933 400.445 191.1 406.05C79.2667 411.656 0 351.063 0 351.063V-36.4491H375V237.452Z" fill="url(#paint0_linear_28_9908)"/>
<path d="M141.301 316.963C121.101 367.779 126.867 402.113 126.867 402.113C146.034 405.617 165.501 407.051 184.967 406.417C209.634 405.617 232.434 397.942 253.101 386.298C253.801 358.07 244.167 332.879 237.301 318.565C193.134 339.952 154.601 323.97 141.301 316.963Z" fill="#AB8DA8"/>
<path d="M147.234 303.283C145.067 307.954 143.067 312.525 141.334 316.963C154.601 323.97 193.167 339.986 237.301 318.565C233.534 310.724 230.567 306.153 230.567 306.153C230.567 306.153 174.401 245.026 147.234 303.283Z" fill="#FEF9EF"/>
<path d="M191.101 406.05V388.466L206.367 377.856L196.267 391.97L197.301 405.55L191.101 406.05Z" fill="#543753"/>
<path d="M118.534 193.176C118.534 193.176 117 193.743 116.734 209.291C116.467 224.84 115.3 255.77 115.3 255.77C115.3 255.77 101.2 242.657 100.167 236.051C99.1337 229.444 99.567 223.505 98.867 219.868C98.167 216.231 98.0337 206.288 98.3337 204.42C98.6337 202.551 93.9004 202.251 92.6004 205.02C91.3004 207.79 90.867 216.999 90.2004 217.332C89.5337 217.666 81.9004 218.367 81.167 220.035C80.4337 221.703 81.7337 224.74 80.6004 227.276C79.467 229.811 80.7004 231.613 80.6004 233.548C80.5004 235.484 80.0337 236.218 80.9004 239.154C81.767 242.09 81.9337 244.559 83.3337 245.026L84.7337 245.493L89.6337 247.162C89.6337 247.162 110.634 294.508 121.034 295.542C131.434 296.577 136.867 288.302 138.167 281.629C139.467 274.956 146.434 234.983 146.434 234.983L118.534 193.176Z" fill="#FFEDE5"/>
<path d="M130.334 226.074L141.867 261.142L146.434 234.95L130.334 226.074Z" fill="#E0855C"/>
<path d="M115.301 255.737C115.301 255.737 125.101 263.978 128.334 270.751C128.334 270.751 123.101 256.871 115.501 250.432L115.301 255.737Z" fill="#E0855C"/>
<path d="M86.3672 244.826C86.3672 244.826 96.6005 244.559 97.4338 243.925C98.2672 243.291 98.3005 240.288 97.8672 239.921C97.8672 239.921 98.7005 235.55 97.9338 234.416C97.9338 234.416 98.2338 231.179 97.9005 229.277C97.9005 229.277 99.6005 239.02 99.4005 240.555C99.2005 242.09 100.001 244.693 95.4005 245.46C90.8005 246.227 86.3672 244.826 86.3672 244.826Z" fill="#E0855C"/>
<path d="M97.9337 234.482C97.9004 234.482 97.9004 234.482 97.8671 234.482C97.7004 234.449 97.5671 234.282 97.6004 234.115C98.0337 231.413 97.3337 226.174 97.3337 226.141V226.074V226.008C97.6337 224.84 98.2671 221.537 97.4004 220.536C96.6337 219.635 89.2337 219.401 84.7337 219.468C84.5671 219.468 84.4004 219.334 84.4004 219.134C84.4004 218.934 84.5337 218.801 84.7337 218.801C86.7337 218.767 96.7004 218.7 97.9004 220.102C99.1004 221.503 98.1671 225.407 98.0004 226.108C98.0671 226.742 98.6671 231.546 98.2337 234.216C98.2337 234.382 98.0671 234.482 97.9337 234.482Z" fill="#472938"/>
<path d="M97.6673 226.408C97.6339 226.408 97.6673 226.408 97.6673 226.408L86.9339 225.907C86.7339 225.907 86.6006 225.741 86.6006 225.574C86.6006 225.374 86.7339 225.24 86.9339 225.24L97.6673 225.741C97.8673 225.741 98.0006 225.907 98.0006 226.074C98.0006 226.275 97.8339 226.408 97.6673 226.408Z" fill="#472938"/>
<path d="M97.8336 240.255H87.2669C87.0669 240.255 86.9336 240.121 86.9336 239.921C86.9336 239.721 87.0669 239.588 87.2669 239.588H97.8336C98.0336 239.588 98.1669 239.721 98.1669 239.921C98.1669 240.121 98.0336 240.255 97.8336 240.255Z" fill="#472938"/>
<path d="M98.034 232.981H85.9007C85.7007 232.981 85.5674 232.848 85.5674 232.647C85.5674 232.447 85.7007 232.314 85.9007 232.314H98.034C98.234 232.314 98.3674 232.447 98.3674 232.647C98.3674 232.848 98.234 232.981 98.034 232.981Z" fill="#472938"/>
<path d="M278.966 176.926L299.166 176.159C300.033 176.125 300.766 176.793 300.799 177.66L302.366 219.368C302.399 220.235 301.733 220.969 300.866 221.003L280.666 221.77C279.799 221.803 279.066 221.136 279.033 220.269L277.466 178.561C277.433 177.66 278.099 176.96 278.966 176.926Z" fill="#3B2645"/>
<path d="M280.6 220.402C280.466 220.402 280.366 220.302 280.366 220.169L278.8 178.461C278.8 178.394 278.833 178.328 278.866 178.294C278.9 178.261 278.966 178.228 279.033 178.228L299.233 177.46C299.366 177.46 299.466 177.56 299.466 177.694L301.033 219.401C301.033 219.535 300.933 219.635 300.8 219.635L280.6 220.402Z" fill="#FEF9EF"/>
<path d="M216.333 171.755C216.333 171.755 237.533 173.89 241.466 191.107C245.4 208.324 252.666 249.23 252.666 249.23C252.666 249.23 268.133 224.439 269.366 220.502C270.6 216.565 274.6 203.252 274.466 198.714C274.333 194.176 278.766 197.413 278.766 202.818L279.433 220.702C279.466 221.303 279.966 221.77 280.566 221.737H280.6L301.066 220.202C301.766 220.169 302.266 219.568 302.233 218.867V218.634C302.233 218.634 300.766 215.597 301.2 214.196C301.633 212.795 305.133 212.661 305.533 212.995C305.933 213.329 308.1 217.499 308.033 218.634C307.966 219.768 305.433 223.305 303.766 223.839C302.1 224.373 285.5 228.377 282.1 233.515C278.7 238.653 263.833 283.664 251.766 287.134C239.7 290.604 227.933 257.872 225.166 248.296C222.4 238.72 216.333 171.755 216.333 171.755Z" fill="#FFEDE5"/>
<path d="M221.666 224.84C222.966 235.884 224.266 245.16 225.166 248.263C226.466 252.734 229.733 262.31 234.099 270.851L235.433 207.957L221.666 224.84Z" fill="#E0855C"/>
<path d="M301.666 201.117C301.666 201.117 308.9 204.82 308.766 206.388C308.633 207.957 307.266 210.759 305.866 210.626C304.466 210.492 301.833 209.091 301.1 207.456C300.366 205.821 300 200.583 301.666 201.117Z" fill="#FFEDE5"/>
<path d="M302.033 206.555C302.033 206.555 309.266 210.259 309.133 211.827C308.999 213.395 307.633 216.198 306.233 216.065C304.833 215.931 302.199 214.53 301.466 212.895C300.733 211.26 300.366 206.021 302.033 206.555Z" fill="#FFEDE5"/>
<path d="M302.033 194.51C302.033 194.51 309.266 198.214 309.133 199.782C308.999 201.35 307.633 204.153 306.233 204.019C304.833 203.886 302.199 202.485 301.466 200.85C300.733 199.215 300.366 193.943 302.033 194.51Z" fill="#FFEDE5"/>
<path d="M246.133 262.477C246.066 262.477 246.033 262.477 245.966 262.443C245.8 262.376 245.733 262.143 245.833 262.009L252.366 249.097C252.433 248.93 252.666 248.863 252.8 248.963C252.966 249.03 253.033 249.264 252.933 249.397L246.4 262.31C246.366 262.41 246.266 262.477 246.133 262.477Z" fill="#472938"/>
<path d="M152.5 280.795C152.533 291.638 147.233 303.25 147.233 303.25C147.233 303.25 183.933 323.87 230.533 306.119C230.533 306.119 224.833 291.438 225.567 276.09C187.9 269.083 152.5 280.795 152.5 280.795Z" fill="#FFEDE5"/>
<path d="M118.533 193.176C115.8 197.28 126.333 217.7 136.4 238.353C145.567 217.833 140.2 192.909 137.1 182.198C130 184.934 121.3 188.971 118.533 193.176Z" fill="#FFEDE5"/>
<path d="M225.567 276.123C225.633 274.522 225.8 272.92 226.033 271.319C226.167 270.351 226.333 269.317 226.5 268.216C196.6 260.041 161 269.383 150.967 272.353C151.933 275.656 152.5 278.526 152.5 280.795C152.5 280.795 187.9 269.083 225.567 276.123Z" fill="#FEF9EF"/>
<path d="M136.4 239.454C136.267 239.454 136.167 239.387 136.1 239.254L128.667 223.238C128.6 223.071 128.667 222.871 128.834 222.805C129 222.738 129.2 222.805 129.267 222.971L136.7 238.987C136.767 239.154 136.7 239.354 136.534 239.421C136.5 239.454 136.434 239.454 136.4 239.454Z" fill="#472938"/>
<path d="M193.4 310.157C193.916 310.157 194.333 309.738 194.333 309.222C194.333 308.706 193.916 308.288 193.4 308.288C192.885 308.288 192.467 308.706 192.467 309.222C192.467 309.738 192.885 310.157 193.4 310.157Z" fill="#E0855C"/>
<path d="M233.833 209.925C233.833 209.692 233.833 209.458 233.833 209.258C233.833 209.158 233.833 209.024 233.833 208.924C233.833 208.657 233.833 208.424 233.8 208.157C233.8 208.09 233.8 208.023 233.8 207.923C233.8 207.59 233.766 207.289 233.766 206.989V206.789C233.766 206.555 233.733 206.288 233.733 206.055C233.733 205.955 233.733 205.855 233.7 205.754C233.7 205.554 233.666 205.354 233.666 205.187L233.633 204.854C233.633 204.687 233.6 204.487 233.566 204.32C233.566 204.22 233.533 204.12 233.533 203.986C233.5 203.786 233.5 203.619 233.467 203.419C233.467 203.319 233.433 203.252 233.433 203.152C233.4 202.885 233.367 202.618 233.3 202.351C230.7 186.536 216.3 171.721 216.3 171.721C216.3 171.721 221.9 193.976 223.7 196.579C230.266 206.122 233.933 211.86 233.467 219.468C233.5 219.068 233.533 218.7 233.566 218.3C233.566 218.2 233.566 218.1 233.566 218C233.6 217.7 233.6 217.399 233.633 217.132C233.633 217.032 233.633 216.899 233.666 216.799C233.666 216.532 233.7 216.265 233.7 215.964L233.733 215.631C233.733 215.331 233.766 215.064 233.766 214.797C233.766 214.697 233.766 214.63 233.766 214.53C233.8 213.796 233.833 213.062 233.833 212.328C233.833 212.227 233.833 212.161 233.833 212.061C233.833 211.794 233.833 211.527 233.833 211.26V210.926C233.833 210.693 233.833 210.459 233.833 210.226V209.925Z" fill="#FFEDE5"/>
<path d="M223.7 196.612C221.9 194.01 216.334 171.755 216.334 171.755H212.1L147.234 178.695C147.234 178.695 142.667 180.029 137.1 182.165C140.167 192.875 145.567 217.833 136.4 238.32C142.434 250.732 148.267 263.211 150.934 272.353C160.967 269.35 196.567 260.041 226.467 268.216C228.434 255.603 232.234 235.517 233.467 219.501C233.934 211.894 230.267 206.155 223.7 196.612Z" fill="#AB8DA8"/>
<path d="M158.101 254.736C156.501 254.736 154.834 254.535 153.067 254.102C152.901 254.068 152.767 253.868 152.834 253.701C152.867 253.534 153.067 253.401 153.234 253.468C159.567 255.069 164.701 253.234 170.101 251.332C175.234 249.497 180.534 247.629 187.334 248.396C201.067 249.931 223.434 246.227 223.667 246.194C223.867 246.161 224.034 246.294 224.067 246.461C224.101 246.628 223.967 246.828 223.801 246.861C223.567 246.895 201.101 250.632 187.301 249.097C180.667 248.363 175.434 250.198 170.367 252C166.301 253.368 162.434 254.736 158.101 254.736Z" fill="#472938"/>
<path d="M209.367 82.8009C209.367 82.8009 226.767 84.536 221.533 107.692C216.3 130.848 221.467 129.814 226 142.059C230.533 154.304 206.833 146.196 206.833 146.196C206.833 146.196 218.9 164.281 154.767 156.473C101.867 150.033 137.167 122.44 137.167 122.44C137.167 122.44 121.267 124.542 140.3 107.725C153.7 95.8804 160.833 52.3378 209.367 82.8009Z" fill="#3B2645"/>
<path d="M197.833 146.864C197.833 146.864 192.467 165.715 199.833 169.219C205.5 171.921 212.1 171.755 212.1 171.755C212.1 171.755 209.833 221.737 181.833 222.271C153.833 222.805 147.233 178.695 147.233 178.695C147.233 178.695 158.633 174.691 162.033 166.85C165.433 159.009 165.6 148.031 165.6 148.031L197.833 146.864Z" fill="#FFEDE5"/>
<path d="M211.285 132.611C214.138 127.664 214.073 122.28 211.14 120.584C208.206 118.889 203.515 121.525 200.662 126.472C197.808 131.419 197.873 136.804 200.807 138.499C203.74 140.194 208.431 137.558 211.285 132.611Z" fill="#E0855C"/>
<path d="M204.3 132.983C204.2 132.983 204.133 132.95 204.067 132.883C203.933 132.75 203.933 132.55 204.067 132.416L209.1 127.678C209.233 127.545 209.433 127.545 209.567 127.678C209.7 127.812 209.7 128.012 209.567 128.145L204.533 132.883C204.467 132.983 204.4 132.983 204.3 132.983Z" fill="#472938"/>
<path d="M158.838 134.739C162.134 133.959 163.741 128.82 162.428 123.261C161.114 117.702 157.377 113.828 154.081 114.609C150.784 115.389 149.177 120.528 150.491 126.087C151.805 131.646 155.542 135.52 158.838 134.739Z" fill="#FFEDE5"/>
<path d="M196.167 162.946C195.167 156.206 197.834 146.83 197.834 146.83L165.567 148.031C165.567 148.031 165.534 150.467 165.134 153.87C165.134 153.904 181.234 173.423 196.167 162.946Z" fill="#E0855C"/>
<path d="M157.967 127.912C157.867 127.912 157.767 127.845 157.701 127.745L154.501 122.84C154.401 122.673 154.434 122.473 154.601 122.373C154.767 122.273 154.967 122.306 155.067 122.473L158.267 127.378C158.367 127.545 158.334 127.745 158.167 127.845C158.101 127.912 158.034 127.912 157.967 127.912Z" fill="#472938"/>
<path d="M160.1 92.7106C160.1 92.7106 148.633 154.671 175.567 161.111C202.5 167.551 212.1 109.761 211.4 97.7489C210.7 85.7371 164.1 82.1003 160.1 92.7106Z" fill="#FFEDE5"/>
<path d="M195.934 121.038C196.8 121.205 197.367 122.039 197.234 122.907L197.067 123.874C196.9 124.742 196.067 125.309 195.2 125.176C194.334 125.009 193.767 124.175 193.9 123.307L194.067 122.34C194.234 121.472 195.067 120.872 195.934 121.038Z" fill="#472938"/>
<path d="M170.833 118.236C171.733 118.236 172.433 118.936 172.433 119.837V120.805C172.433 121.672 171.733 122.406 170.833 122.406C169.967 122.406 169.233 121.706 169.233 120.805V119.837C169.233 118.936 169.933 118.236 170.833 118.236Z" fill="#472938"/>
<path d="M201.8 119.37C201.8 119.37 200.6 117.568 197.133 116.968C193.667 116.367 192.567 116.567 192.533 115.466C192.5 114.365 200.267 112.664 201.8 119.37Z" fill="#472938"/>
<path d="M165.8 114.799C165.8 114.799 167.533 113.498 171 114.065C174.466 114.665 175.433 115.199 175.833 114.165C176.233 113.131 169.466 108.96 165.8 114.799Z" fill="#472938"/>
<path d="M172.4 138.422L186.8 140.057C186.8 140.057 184.566 149.8 178.2 148.665C171.866 147.564 172.4 138.422 172.4 138.422Z" fill="white"/>
<path d="M181.934 136.02C180.934 136.02 179.834 135.753 178.834 135.286C178.667 135.219 178.6 135.019 178.667 134.852C178.734 134.685 178.934 134.618 179.1 134.685C180.567 135.386 182.201 135.552 183.301 135.119C183.767 134.952 184.067 134.685 184.2 134.385C184.634 133.35 184.467 130.147 184.267 126.444L184.2 125.142C183.834 118.302 187.934 117.001 188.101 116.934C188.267 116.868 188.467 116.968 188.501 117.168C188.567 117.335 188.467 117.535 188.267 117.568C188.101 117.602 184.501 118.803 184.834 125.109L184.901 126.41C185.101 130.347 185.301 133.484 184.767 134.652C184.567 135.119 184.134 135.519 183.501 135.753C183.1 135.953 182.534 136.02 181.934 136.02Z" fill="#472938"/>
<path d="M206.834 127.178C206.834 127.178 209 110.461 201.8 101.319C201.8 101.319 195.7 112.864 185.7 108.86C185.7 108.86 171.967 120.771 157.967 117.301C143.967 113.831 148.934 81.0659 169.234 79.6645C189.534 78.2631 230.834 86.4378 206.834 127.178Z" fill="#3B2645"/>
</g>
<defs>
<linearGradient id="paint0_linear_28_9908" x1="375" y1="406.417" x2="-125.641" y2="373.613" gradientUnits="userSpaceOnUse">
<stop stop-color="#92A3FD"/>
<stop offset="1" stop-color="#9DCEFF"/>
</linearGradient>
<clipPath id="clip0_28_9908">
<rect width="375" height="406" fill="white" transform="translate(0 0.550903)"/>
</clipPath>
</defs>
</svg>
