<?xml version="1.0" standalone="no"?>
<!DOCTYPE svg PUBLIC "-//W3C//DTD SVG 20010904//EN"
 "http://www.w3.org/TR/2001/REC-SVG-20010904/DTD/svg10.dtd">
<svg version="1.0" xmlns="http://www.w3.org/2000/svg"
 width="500.000000pt" height="499.000000pt" viewBox="0 0 500.000000 499.000000"
 preserveAspectRatio="xMidYMid meet">

<g transform="translate(0.000000,499.000000) scale(0.100000,-0.100000)"
fill="#000000" stroke="none">
<path d="M1305 2915 c-32 -31 -32 -59 1 -92 20 -20 31 -24 57 -19 36 7 67 38
67 68 0 27 -45 68 -75 68 -14 0 -37 -11 -50 -25z"/>
<path d="M2352 2933 c-67 -4 -80 -20 -27 -35 40 -10 45 -23 45 -110 l0 -77
-31 11 c-16 6 -56 8 -89 6 -70 -5 -119 -38 -151 -100 -29 -58 -24 -160 11
-211 50 -73 149 -99 218 -57 32 20 59 19 47 -1 -7 -10 99 -12 158 -3 46 8 47
17 5 29 l-33 10 -5 270 -5 270 -40 1 c-22 0 -68 -1 -103 -3z m-2 -253 c18 -18
20 -33 20 -145 0 -138 -3 -145 -70 -145 -72 0 -113 116 -80 229 21 74 87 104
130 61z"/>
<path d="M3090 2780 l0 -60 -110 0 c-110 0 -136 -9 -80 -29 17 -5 30 -15 30
-21 0 -17 -71 -179 -81 -186 -9 -5 -99 167 -99 190 0 8 9 18 20 21 48 15 12
25 -95 25 -115 0 -137 -7 -90 -28 18 -8 47 -56 110 -182 47 -93 85 -175 85
-182 0 -6 -12 -29 -27 -50 l-26 -39 -26 25 c-38 36 -75 42 -100 17 -44 -44
-11 -101 59 -101 68 0 101 40 191 230 44 91 91 190 107 220 l27 55 50 0 50 0
5 -147 c5 -134 7 -150 26 -169 28 -27 99 -36 159 -19 57 16 61 40 6 40 -63 0
-71 20 -71 172 l0 128 55 0 c42 0 55 3 55 15 0 12 -13 15 -55 15 l-55 0 0 60
0 60 -60 0 -60 0 0 -60z"/>
<path d="M3529 2729 c-59 -9 -79 -20 -117 -63 -53 -60 -65 -141 -33 -211 22
-48 54 -79 103 -100 46 -19 138 -20 181 -2 42 18 97 65 97 83 0 22 -19 17 -57
-16 -27 -24 -43 -30 -81 -30 -74 0 -112 38 -125 123 l-6 37 136 0 135 0 -7 43
c-18 106 -98 155 -226 136z m75 -41 c9 -12 16 -42 16 -65 l0 -43 -66 0 c-56 0
-65 2 -60 16 3 9 6 26 6 38 0 33 37 76 65 76 13 0 31 -10 39 -22z"/>
<path d="M1303 2723 c-70 -4 -83 -21 -33 -40 l30 -11 0 -141 c0 -141 0 -141
-25 -153 -47 -21 -25 -28 90 -28 116 0 141 9 90 32 -24 11 -25 11 -27 177 l-3
166 -30 1 c-16 0 -58 -1 -92 -3z"/>
<path d="M1583 2723 c-47 -3 -63 -8 -63 -18 0 -8 8 -15 18 -15 37 0 42 -20 42
-162 0 -138 0 -138 -25 -150 -47 -21 -25 -28 90 -28 107 0 143 10 94 25 -29
10 -39 45 -39 146 0 101 7 122 50 144 39 20 56 19 80 -5 18 -18 20 -33 20
-145 0 -124 0 -126 -25 -137 -47 -21 -25 -28 90 -28 113 0 143 10 91 29 -33
13 -36 27 -36 157 0 163 -19 194 -120 194 -52 0 -96 -16 -119 -44 -20 -24 -31
-19 -31 14 0 27 -3 30 -27 28 -16 -1 -56 -3 -90 -5z"/>
<path d="M1251 2130 c-1 -3 5 -21 12 -41 l12 -36 17 41 c15 37 15 39 1 18
l-16 -24 -13 24 c-7 13 -13 21 -13 18z"/>
<path d="M1346 2114 c-19 -19 -20 -25 -3 -49 10 -13 21 -16 40 -11 21 5 27 12
27 35 0 40 -35 54 -64 25z m52 -22 c4 -28 -24 -40 -45 -19 -14 13 -14 19 -3
32 18 22 44 15 48 -13z"/>
<path d="M1541 2088 c1 -24 3 -35 6 -25 6 21 12 22 28 0 10 -14 12 -10 11 23
-1 32 -5 40 -23 42 -21 3 -23 0 -22 -40z m39 17 c0 -8 -7 -15 -15 -15 -8 0
-15 7 -15 15 0 8 7 15 15 15 8 0 15 -7 15 -15z"/>
<path d="M1708 2098 c-2 -25 -8 -33 -22 -31 -12 1 -15 -2 -8 -9 20 -20 42 0
42 37 0 44 -8 46 -12 3z"/>
<path d="M1760 2115 c-26 -32 13 -81 48 -59 34 22 22 74 -18 74 -10 0 -23 -7
-30 -15z m55 -25 c0 -18 -6 -26 -21 -28 -23 -3 -37 18 -27 44 10 25 48 13 48
-16z"/>
<path d="M1861 2105 c-1 -39 12 -58 35 -53 14 2 19 12 20 38 l1 35 -4 -33 c-6
-46 -36 -40 -44 8 -6 34 -6 34 -8 5z"/>
<path d="M1961 2088 c1 -24 3 -35 6 -25 6 21 12 22 27 2 9 -12 11 -8 11 22 0
32 -4 39 -22 41 -21 3 -23 0 -22 -40z m39 17 c0 -8 -7 -15 -15 -15 -8 0 -15 7
-15 15 0 8 7 15 15 15 8 0 15 -7 15 -15z"/>
<path d="M2052 2090 c1 -32 2 -37 5 -16 l5 29 23 -29 24 -29 -1 45 c-1 45 -1
45 -8 10 -4 -19 -8 -30 -9 -25 -1 6 -10 21 -21 35 l-20 25 2 -45z"/>
<path d="M2150 2090 c0 -35 3 -40 23 -39 16 1 18 2 5 6 -12 3 -18 14 -18 33 0
19 6 30 18 33 13 4 11 5 -5 6 -20 1 -23 -4 -23 -39z"/>
<path d="M2221 2130 c-1 -3 5 -21 12 -41 l12 -36 17 41 c15 37 15 39 1 18
l-16 -24 -13 24 c-7 13 -13 21 -13 18z"/>
<path d="M2357 2122 c6 -4 13 -23 16 -42 l4 -35 1 37 c1 20 8 39 15 41 6 3 -1
6 -18 6 -17 0 -25 -3 -18 -7z"/>
<path d="M2440 2115 c-26 -32 13 -81 48 -59 34 22 22 74 -18 74 -10 0 -23 -7
-30 -15z m55 -25 c0 -18 -6 -26 -23 -28 -24 -4 -38 18 -28 44 3 9 15 14 28 12
17 -2 23 -10 23 -28z"/>
<path d="M2597 2089 c-13 -32 -13 -38 -2 -29 8 6 16 21 18 33 3 21 4 21 11 2
4 -11 10 -26 12 -34 3 -8 6 -12 9 -9 6 6 -17 78 -25 78 -4 0 -14 -18 -23 -41z"/>
<path d="M2733 2090 c0 -25 2 -35 4 -22 2 12 2 32 0 45 -2 12 -4 2 -4 -23z"/>
<path d="M2783 2090 c0 -25 2 -35 4 -22 2 12 2 32 0 45 -2 12 -4 2 -4 -23z"/>
<path d="M2830 2090 c0 -35 3 -40 23 -39 16 1 18 2 5 6 -12 3 -18 14 -18 33 0
19 6 30 18 33 13 4 11 5 -5 6 -20 1 -23 -4 -23 -39z"/>
<path d="M2915 2095 c-9 -20 -14 -40 -11 -43 3 -2 7 1 10 9 2 8 8 23 12 34 7
19 8 19 11 -2 2 -12 11 -27 20 -34 13 -11 13 -8 -1 26 -23 53 -24 53 -41 10z"/>
<path d="M3002 2093 c-2 -39 0 -43 21 -42 16 1 17 3 5 6 -11 3 -18 17 -21 41
l-4 37 -1 -42z"/>
<path d="M3067 2122 c6 -4 13 -23 16 -42 l4 -35 1 37 c2 25 7 38 20 41 9 3 1
5 -18 6 -19 0 -30 -3 -23 -7z"/>
<path d="M3153 2090 c0 -25 2 -35 4 -22 2 12 2 32 0 45 -2 12 -4 2 -4 -23z"/>
<path d="M3198 2113 c-2 -10 -1 -29 3 -43 6 -20 7 -17 8 18 1 44 -4 54 -11 25z"/>
<path d="M3243 2090 c0 -25 2 -35 4 -22 2 12 2 32 0 45 -2 12 -4 2 -4 -23z"/>
<path d="M3290 2090 c0 -35 3 -40 23 -39 16 1 18 2 5 6 -12 3 -18 14 -18 33 0
19 6 30 18 33 13 4 11 5 -5 6 -20 1 -23 -4 -23 -39z"/>
<path d="M3371 2088 c1 -24 3 -35 6 -25 4 17 6 17 21 3 16 -13 17 -11 17 22 0
31 -4 38 -22 40 -21 3 -23 0 -22 -40z m37 20 c-6 -18 -28 -21 -28 -4 0 9 7 16
16 16 9 0 14 -5 12 -12z"/>
<path d="M3501 2130 c-1 -3 6 -23 14 -45 8 -24 14 -32 15 -20 0 11 7 31 16 43
8 12 11 22 5 22 -5 0 -13 -10 -17 -22 l-6 -21 -14 24 c-7 13 -13 22 -13 19z"/>
<path d="M3589 2106 c-9 -20 -9 -29 1 -41 28 -34 87 5 64 43 -18 28 -52 27
-65 -2z m56 -16 c0 -18 -6 -26 -21 -28 -23 -3 -37 18 -27 44 10 25 48 13 48
-16z"/>
<path d="M3691 2105 c-1 -39 12 -58 35 -53 14 2 19 12 20 38 l1 35 -4 -33 c-6
-46 -36 -40 -44 8 -6 34 -6 34 -8 5z"/>
<path d="M1450 2072 c0 -18 29 -27 43 -13 9 9 8 11 -7 5 -11 -4 -21 -2 -27 7
-6 10 -9 11 -9 1z"/>
</g>
</svg>
